<svg width="20" height="13" viewBox="0 0 20 13" fill="none" xmlns="http://www.w3.org/2000/svg">
<rect x="13.4209" y="5.56299" width="6.57895" height="1.24738" fill="#007B83"/>
<rect x="16.0522" y="9.30511" width="6.23689" height="1.31579" transform="rotate(-90 16.0522 9.30511)" fill="#007B83"/>
<g clip-path="url(#clip0)">
<path d="M6.1405 0C5.23974 0 4.50684 0.732908 4.50684 1.63367V2.12658H5.35183V1.63367C5.35183 1.19878 5.70574 0.844994 6.1405 0.844994C6.57539 0.844994 6.92932 1.19876 6.92932 1.63367V2.12658H7.77431V1.63367C7.77431 0.732908 7.04128 0 6.1405 0Z" fill="#007B83"/>
<path d="M7.2953 10.2959C7.2953 10.925 6.78352 11.4368 6.15454 11.4368H6.12638C5.49743 11.4368 4.98562 10.925 4.98562 10.2959H4.14062C4.14062 11.391 5.03141 12.2818 6.12638 12.2818H6.15454C7.24951 12.2818 8.1403 11.391 8.1403 10.2959H7.2953Z" fill="#007B83"/>
<path d="M11.6078 10.1359L10.4075 8.26856V5.87171C10.4075 3.49542 8.49312 1.56219 6.14021 1.56219C3.78716 1.56219 1.87296 3.49542 1.87296 5.87171V8.26856L0.672637 10.1357C0.588975 10.2657 0.583074 10.4311 0.657142 10.5667C0.73121 10.7023 0.873326 10.7868 1.02796 10.7868H11.2525C11.4071 10.7868 11.5492 10.7023 11.6232 10.5668C11.6973 10.4312 11.6914 10.2659 11.6078 10.1359ZM1.80181 9.94181L2.65077 8.62108C2.69456 8.55306 2.71795 8.47361 2.71795 8.39264V5.87171C2.71795 3.96144 4.25318 2.40721 6.14021 2.40721C8.02739 2.40721 9.56247 3.96146 9.56247 5.87171V8.39264C9.56247 8.47361 9.58572 8.55291 9.62951 8.62108L10.4785 9.94181H1.80181Z" fill="#007B83"/>
</g>
<defs>
<clipPath id="clip0">
<rect width="12.2807" height="12.2807" fill="white"/>
</clipPath>
</defs>
</svg>
