<svg width="20" height="17" viewBox="0 0 20 17" fill="none" xmlns="http://www.w3.org/2000/svg">
<path d="M20 7.33336C20 8.54169 19.5536 9.65801 18.6607 10.6823C17.7679 11.7066 16.5551 12.5157 15.0223 13.1094C13.4896 13.7032 11.8155 14 10 14C9.47917 14 8.93973 13.9723 8.3817 13.9167C6.90848 15.132 5.19717 15.9723 3.24777 16.4375C2.88318 16.5348 2.45908 16.6111 1.97545 16.6667C1.84896 16.6806 1.73549 16.6493 1.63504 16.5729C1.5346 16.4966 1.46949 16.3959 1.43973 16.2709V16.2604C1.41741 16.2327 1.41555 16.191 1.43415 16.1354C1.45275 16.0799 1.46019 16.0452 1.45647 16.0313C1.45275 16.0174 1.46949 15.9844 1.5067 15.9323L1.57366 15.8386L1.65179 15.75L1.74107 15.6563C1.79315 15.6007 1.90848 15.4809 2.08705 15.2969C2.26562 15.1129 2.39397 14.9809 2.4721 14.9011C2.55022 14.8212 2.66555 14.6841 2.81808 14.4896C2.97061 14.2952 3.09152 14.1181 3.1808 13.9584C3.27009 13.7986 3.37054 13.5938 3.48214 13.3438C3.59375 13.0938 3.69048 12.8299 3.77232 12.5521C2.60417 11.9341 1.68341 11.1702 1.01004 10.2604C0.336682 9.35072 0 8.37503 0 7.33336C0 6.43058 0.264137 5.56773 0.792411 4.74481C1.32068 3.9219 2.03125 3.21183 2.92411 2.6146C3.81696 2.01738 4.88095 1.54342 6.11607 1.19273C7.35119 0.842034 8.64583 0.666687 10 0.666687C11.8155 0.666687 13.4896 0.963562 15.0223 1.55731C16.5551 2.15106 17.7679 2.96009 18.6607 3.9844C19.5536 5.0087 20 6.12502 20 7.33336ZM1.42857 8.35419C1.59226 9.66669 2.40327 10.3229 3.86161 10.3229C4.53869 10.3229 5.10231 10.1771 5.55246 9.88544C6.0026 9.59378 6.22768 9.14586 6.22768 8.54169C6.22768 8.29169 6.18862 8.06947 6.11049 7.87503C6.03237 7.68058 5.93378 7.51912 5.81473 7.39065C5.69568 7.26218 5.53571 7.14759 5.33482 7.0469C5.13393 6.94621 4.94048 6.86634 4.75446 6.80732C4.56845 6.74829 4.3378 6.68752 4.0625 6.62502C3.46726 6.50002 3.0878 6.35766 2.92411 6.19794C2.83482 6.10766 2.79018 6.00697 2.79018 5.89586C2.79018 5.69447 2.89435 5.54863 3.10268 5.45836C3.31101 5.36808 3.53795 5.32294 3.78348 5.32294C4.11086 5.32294 4.35826 5.38718 4.52567 5.51565C4.69308 5.64412 4.80283 5.85766 4.85491 6.15627L6.04911 6.11461C6.02679 5.51738 5.81101 5.07468 5.40179 4.78648C4.99256 4.49829 4.45685 4.35419 3.79464 4.35419C3.1994 4.35419 2.69345 4.48961 2.27679 4.76044C1.86012 5.03127 1.65179 5.43405 1.65179 5.96877C1.65179 6.46183 1.8192 6.8403 2.15402 7.10419C2.48884 7.36808 2.94643 7.56947 3.52679 7.70836C3.55655 7.7153 3.64955 7.7344 3.8058 7.76565C3.96205 7.7969 4.07738 7.82294 4.15179 7.84378C4.22619 7.86461 4.33036 7.89759 4.46429 7.94273C4.59821 7.98787 4.69866 8.03475 4.76562 8.08336C4.83259 8.13197 4.89397 8.19794 4.94978 8.28128C5.00558 8.36461 5.03348 8.45489 5.03348 8.55211C5.03348 8.82294 4.91629 9.0226 4.68192 9.15107C4.44754 9.27954 4.17783 9.34378 3.87277 9.34378C3.15848 9.34378 2.73065 8.97919 2.58929 8.25003L1.42857 8.35419ZM7.22098 10.2292H8.31473L8.32589 5.68752L9.47545 10.2292H10.625L11.7857 5.68752L11.7969 10.2292H12.9018V4.46877H11.1049L10.067 8.38544L9.0067 4.46877H7.22098V10.2292ZM13.7723 8.35419C13.936 9.66669 14.7507 10.3229 16.2165 10.3229C16.8862 10.3229 17.4461 10.1771 17.8962 9.88544C18.3464 9.59378 18.5714 9.14586 18.5714 8.54169C18.5714 8.22919 18.5193 7.96183 18.4152 7.73961C18.311 7.51739 18.1455 7.33509 17.9185 7.19273C17.6916 7.05037 17.4702 6.941 17.2545 6.86461C17.0387 6.78822 16.756 6.70836 16.4062 6.62502C15.811 6.50002 15.4315 6.35766 15.2679 6.19794C15.1786 6.10766 15.1339 6.00697 15.1339 5.89586C15.1339 5.69447 15.2381 5.54863 15.4464 5.45836C15.6548 5.36808 15.8817 5.32294 16.1272 5.32294C16.4546 5.32294 16.7039 5.38718 16.875 5.51565C17.0461 5.64412 17.1577 5.85766 17.2098 6.15627L18.404 6.11461C18.3817 5.51738 18.1659 5.07468 17.7567 4.78648C17.3475 4.49829 16.8118 4.35419 16.1496 4.35419C15.5543 4.35419 15.0465 4.48961 14.6261 4.76044C14.2057 5.03127 13.9955 5.43405 13.9955 5.96877C13.9955 6.46183 14.1648 6.8403 14.5033 7.10419C14.8419 7.36808 15.3013 7.56947 15.8817 7.70836C15.9189 7.7153 16.0119 7.7344 16.1607 7.76565C16.3095 7.7969 16.4211 7.82294 16.4955 7.84378C16.5699 7.86461 16.6722 7.89759 16.8025 7.94273C16.9327 7.98787 17.0331 8.03475 17.1038 8.08336C17.1745 8.13197 17.2377 8.19794 17.2935 8.28128C17.3493 8.36461 17.3772 8.45489 17.3772 8.55211C17.3772 8.82294 17.2619 9.0226 17.0312 9.15107C16.8006 9.27954 16.5327 9.34378 16.2277 9.34378C15.4985 9.34378 15.0707 8.97919 14.9442 8.25003L13.7723 8.35419Z" fill="#007B83"/>
</svg>
