<svg width="20" height="20" viewBox="0 0 20 20" fill="none" xmlns="http://www.w3.org/2000/svg">
<path d="M10 0C4.47711 0 0 4.47711 0 10C0 15.5229 4.47711 20 10 20C15.5229 20 20 15.5229 20 10C20 4.47711 15.5229 0 10 0Z" fill="#40B3E0"/>
<path d="M14.3703 5.15342L12.5841 14.1588C12.5841 14.1588 12.3343 14.7833 11.6474 14.4836L7.52566 11.3236L6.02691 10.5992L3.50395 9.74982C3.50395 9.74982 3.11676 9.61248 3.07926 9.31271C3.04176 9.01295 3.51645 8.8506 3.51645 8.8506L13.5458 4.91623C13.5458 4.91623 14.3702 4.55404 14.3702 5.15357" fill="white"/>
<path d="M7.70498 14.6566C7.70498 14.6566 7.58467 14.6454 7.43467 14.1707C7.2849 13.6961 6.52295 11.1981 6.52295 11.1981L12.5806 7.35121C12.5806 7.35121 12.9304 7.13887 12.9179 7.35121C12.9179 7.35121 12.9803 7.38871 12.7929 7.56355C12.6056 7.73848 8.03428 11.8476 8.03428 11.8476" fill="#D2E5F1"/>
<path d="M9.6017 13.1339L7.97146 14.6204C7.97146 14.6204 7.84396 14.7171 7.70459 14.6564L8.01678 11.8955" fill="#B5CFE4"/>
</svg>
