<svg width="20" height="20" viewBox="0 0 20 20" fill="none" xmlns="http://www.w3.org/2000/svg">
<path d="M1.20368 18.8301L2.31402 14.7946L2.36953 14.5928L2.2648 14.4117C1.48433 13.0617 1.0689 11.5292 1.07318 9.96352V9.96215C1.07318 5.05352 5.0853 1.05811 10.0185 1.05811C12.4133 1.05811 14.6587 1.9848 16.3439 3.6677L16.3444 3.66814C18.0344 5.35159 18.9636 7.58736 18.9593 9.96576V9.96667C18.9593 14.8752 14.9471 18.8707 10.014 18.8707H10.0094C8.51281 18.8707 7.04155 18.4948 5.73338 17.7855L5.55972 17.6913L5.3686 17.7413L1.20368 18.8301ZM5.75818 17.1201L5.76116 17.1219C7.04371 17.8807 8.51232 18.2782 10.0078 18.283H10.0094H10.014C14.6123 18.283 18.3608 14.5567 18.3608 9.96667C18.3608 7.74519 17.4928 5.65615 15.9186 4.08324L15.9186 4.08324C14.3435 2.50947 12.2419 1.64573 10.014 1.64573C5.41129 1.64573 1.66248 5.37189 1.66248 9.96207C1.66248 11.5299 2.10043 13.061 2.93898 14.3866C2.93929 14.3871 2.9396 14.3876 2.93991 14.3881L3.00784 14.497L2.27357 17.1679L2.04368 18.0041L2.88254 17.7841L5.65356 17.0572L5.75818 17.1201Z" stroke="#DADADA"/>
<path d="M0.92041 19.0301L2.19932 14.3841C1.41071 13.0214 0.995862 11.476 0.996426 9.90314C0.996426 4.95878 5.03893 0.936523 9.99799 0.936523C12.4083 0.936523 14.6666 1.87193 16.3658 3.56454C18.065 5.25722 18.9997 7.51115 18.9997 9.90757C18.9997 14.8519 14.9572 18.8741 9.99807 18.8741H9.99361C8.48658 18.8741 7.00643 18.4955 5.69174 17.7828L0.92041 19.0301V19.0301Z" fill="url(#paint0_linear)"/>
<path d="M0.59375 19.3554L1.91734 14.5447C1.10352 13.1372 0.669688 11.5381 0.674219 9.90334C0.674219 4.78085 4.85977 0.616028 10.0023 0.616028C12.4975 0.616028 14.8406 1.58256 16.5981 3.33758C18.3599 5.0926 19.3303 7.42669 19.3259 9.90778C19.3259 15.0303 15.1403 19.1951 9.99774 19.1951H9.99336C8.43574 19.1945 6.90304 18.8055 5.535 18.0637L0.59375 19.3555V19.3554ZM5.7675 16.3799L6.04922 16.5492C7.23875 17.253 8.60258 17.6227 9.99336 17.6272H9.99781C14.2683 17.6272 17.7473 14.1661 17.7473 9.90778C17.7473 7.84544 16.9424 5.90778 15.4802 4.44677C14.0179 2.98576 12.0682 2.18397 9.99781 2.18397C5.72281 2.18397 2.24383 5.64498 2.24383 9.90334C2.24383 11.3599 2.6507 12.7809 3.42883 14.0102L3.61219 14.3042L2.82961 17.1505L5.7675 16.3799Z" fill="white"/>
<path d="M7.66807 6.0145C7.49361 5.62695 7.31025 5.618 7.14486 5.61357C7.01072 5.60913 6.85424 5.60913 6.69768 5.60913C6.54119 5.60913 6.29072 5.66703 6.07611 5.89863C5.86143 6.1303 5.26221 6.69154 5.26221 7.83637C5.26221 8.9766 6.09846 10.0813 6.21471 10.2371C6.33096 10.3931 7.829 12.8118 10.1946 13.7428C12.1621 14.5178 12.5646 14.3619 12.9894 14.3218C13.4187 14.2817 14.3667 13.7606 14.5635 13.2171C14.7557 12.6737 14.7557 12.2105 14.6976 12.1125C14.6395 12.0144 14.483 11.9566 14.2504 11.8407C14.0179 11.7249 12.8731 11.1637 12.6585 11.0835C12.4438 11.0034 12.2874 10.9677 12.1353 11.1993C11.9788 11.4309 11.5317 11.9521 11.3974 12.108C11.2633 12.2639 11.1247 12.2817 10.8921 12.1659C10.6596 12.0501 9.90838 11.8051 9.01854 11.0122C8.32541 10.3975 7.85588 9.63582 7.72166 9.40423C7.58752 9.17263 7.7083 9.04781 7.82455 8.93209C7.92736 8.8296 8.05705 8.66034 8.17338 8.52672C8.28963 8.3931 8.32986 8.29512 8.40588 8.13917C8.48189 7.98329 8.44611 7.84968 8.38799 7.73388C8.32986 7.618 7.87377 6.47326 7.66807 6.0145Z" fill="white"/>
<defs>
<linearGradient id="paint0_linear" x1="9.9597" y1="19.0289" x2="9.9597" y2="0.935437" gradientUnits="userSpaceOnUse">
<stop stop-color="#20B038"/>
<stop offset="1" stop-color="#60D66A"/>
</linearGradient>
</defs>
</svg>
