<svg width="22" height="24" viewBox="0 0 22 24" fill="none" xmlns="http://www.w3.org/2000/svg">
<path d="M21.4088 23.2111L19.5847 5.8405C19.5464 5.47686 19.2399 5.20073 18.8743 5.20073H15.4458V4.41906C15.4458 1.98248 13.4633 0 11.0267 0C8.58998 0 6.6075 1.98248 6.6075 4.41906V5.20073H3.17904C2.81338 5.20073 2.50687 5.47686 2.4686 5.8405L0.644503 23.2111C0.623446 23.4124 0.688815 23.6132 0.824129 23.7637C0.959627 23.9141 1.15262 24 1.35495 24H20.6982C20.9007 24 21.0937 23.9141 21.229 23.7637C21.3647 23.6132 21.4299 23.4124 21.4088 23.2111ZM8.03609 4.41906C8.03609 2.7702 9.3777 1.42859 11.0267 1.42859C12.6756 1.42859 14.0172 2.7702 14.0172 4.41906V5.20073H8.03609V4.41906ZM2.14816 22.5714L3.82229 6.62932H6.6075V8.20347C6.6075 8.59788 6.92739 8.91777 7.3218 8.91777C7.7162 8.91777 8.03609 8.59788 8.03609 8.20347V6.62932H14.0172V8.20347C14.0172 8.59788 14.3371 8.91777 14.7315 8.91777C15.1259 8.91777 15.4458 8.59788 15.4458 8.20347V6.62932H18.231L19.9051 22.5714H2.14816Z" fill="#4F505"/>
</svg>
