<svg width="24" height="24" viewBox="0 0 24 24" fill="none" xmlns="http://www.w3.org/2000/svg">
<path d="M7.3478 8.70002L8.297 2.40002H3.3602L1.2974 7.80002C1.2338 7.99202 1.2002 8.19122 1.2002 8.40002C1.2002 9.72482 2.5802 10.8 4.2854 10.8C5.8574 10.8 7.157 9.88322 7.3478 8.70002ZM12.0002 10.8C13.7042 10.8 15.0854 9.72482 15.0854 8.40002C15.0854 8.35082 15.0818 8.30162 15.0794 8.25482L14.4686 2.40002H9.53179L8.9198 8.25002C8.9174 8.29922 8.91499 8.34842 8.91499 8.40002C8.91499 9.72482 10.2962 10.8 12.0002 10.8ZM18.0002 12.0552V16.8H6.0002V12.0624C5.4746 12.252 4.8962 12.36 4.2854 12.36C4.0514 12.36 3.8246 12.3324 3.6002 12.3012V19.92C3.6002 20.844 4.35499 21.6 5.27779 21.6H18.7202C19.6442 21.6 20.4002 20.8428 20.4002 19.92V12.3024C20.1734 12.3372 19.9444 12.3569 19.715 12.3612C19.1299 12.3606 18.5494 12.2571 18.0002 12.0552ZM22.7042 7.80002L20.639 2.40002H15.7034L16.6514 8.69042C16.8362 9.87842 18.1358 10.8 19.715 10.8C21.419 10.8 22.8002 9.72482 22.8002 8.40002C22.8002 8.19122 22.7666 7.99202 22.7042 7.80002Z" fill="white"/>
</svg>
