<svg width="24" height="19" viewBox="0 0 24 19" fill="none" xmlns="http://www.w3.org/2000/svg">
<g clip-path="url(#clip0)">
<path d="M16.2552 6.15793L20.0502 2.0065C20.7983 1.26617 20.2684 0 19.2102 0H1.19069C0.132436 0 -0.39744 1.26617 0.350685 2.0065L7.20044 9.5V15.2861C7.20044 15.7533 7.42281 16.193 7.80044 16.4736L10.8001 18.7002C11.5823 19.2805 12.6177 18.9588 13.0208 18.1966C11.6554 16.8989 10.8004 15.0794 10.8004 13.0625C10.8004 9.73045 13.1273 6.93314 16.2552 6.15793ZM18.0004 7.125C14.6866 7.125 12.0004 9.78314 12.0004 13.0625C12.0004 16.3419 14.6866 19 18.0004 19C21.3143 19 24.0004 16.3419 24.0004 13.0625C24.0004 9.78314 21.3143 7.125 18.0004 7.125ZM18.6004 16.0268V16.625C18.6004 16.789 18.4662 16.9219 18.3004 16.9219H17.7004C17.5347 16.9219 17.4004 16.789 17.4004 16.625V16.0205C16.9771 15.999 16.5653 15.8528 16.2241 15.5993C16.0778 15.4906 16.0703 15.2738 16.2027 15.1488L16.6433 14.7328C16.7472 14.6348 16.9017 14.6304 17.0232 14.7057C17.1683 14.7955 17.3329 14.8438 17.5039 14.8438H18.5581C18.8018 14.8438 19.0006 14.6241 19.0006 14.3543C19.0006 14.1335 18.8652 13.939 18.6717 13.8819L16.9842 13.3809C16.2871 13.1738 15.7999 12.5118 15.7999 11.7707C15.7999 10.8608 16.5143 10.1216 17.4001 10.0982V9.5C17.4001 9.33598 17.5343 9.20312 17.7001 9.20312H18.3001C18.4658 9.20312 18.6001 9.33598 18.6001 9.5V10.1045C19.0234 10.126 19.4352 10.2719 19.7764 10.5257C19.9227 10.6344 19.9302 10.8512 19.7978 10.9762L19.3572 11.3922C19.2533 11.4902 19.0988 11.4946 18.9773 11.4193C18.8322 11.3291 18.6676 11.2812 18.4966 11.2812H17.4424C17.1987 11.2812 16.9999 11.5009 16.9999 11.7707C16.9999 11.9915 17.1353 12.186 17.3288 12.2431L19.0163 12.7441C19.7134 12.9512 20.2006 13.6132 20.2006 14.3543C20.2006 15.2646 19.4866 16.0034 18.6004 16.0268Z" fill="#4F5050"/>
</g>
<defs>
<clipPath id="clip0">
<rect width="24" height="19" fill="white"/>
</clipPath>
</defs>
</svg>
