<svg width="18" height="24" viewBox="0 0 18 24" fill="none" xmlns="http://www.w3.org/2000/svg">
<path d="M17.6719 4.92188L13.0828 0.328125C12.8719 0.117188 12.5859 0 12.2859 0H12V6H18V5.71406C18 5.41875 17.8828 5.13281 17.6719 4.92188ZM10.5 6.375V0H1.125C0.501562 0 0 0.501562 0 1.125V22.875C0 23.4984 0.501562 24 1.125 24H16.875C17.4984 24 18 23.4984 18 22.875V7.5H11.625C11.0063 7.5 10.5 6.99375 10.5 6.375ZM3 3.375C3 3.16781 3.16781 3 3.375 3H7.125C7.33219 3 7.5 3.16781 7.5 3.375V4.125C7.5 4.33219 7.33219 4.5 7.125 4.5H3.375C3.16781 4.5 3 4.33219 3 4.125V3.375ZM3 7.125V6.375C3 6.16781 3.16781 6 3.375 6H7.125C7.33219 6 7.5 6.16781 7.5 6.375V7.125C7.5 7.33219 7.33219 7.5 7.125 7.5H3.375C3.16781 7.5 3 7.33219 3 7.125ZM9.75 19.4944V20.625C9.75 20.8322 9.58219 21 9.375 21H8.625C8.41781 21 8.25 20.8322 8.25 20.625V19.4864C7.72078 19.4592 7.20609 19.2745 6.77953 18.9544C6.59672 18.817 6.58734 18.5433 6.75281 18.3853L7.30359 17.8598C7.43344 17.7361 7.62656 17.7305 7.77844 17.8256C7.95984 17.9391 8.16562 18 8.37937 18H9.69703C10.0017 18 10.2502 17.7225 10.2502 17.3817C10.2502 17.1028 10.0809 16.8572 9.83906 16.785L7.72969 16.1522C6.85828 15.8906 6.24938 15.0544 6.24938 14.1183C6.24938 12.9689 7.14234 12.0352 8.24953 12.0056V10.875C8.24953 10.6678 8.41734 10.5 8.62453 10.5H9.37453C9.58172 10.5 9.74953 10.6678 9.74953 10.875V12.0136C10.2788 12.0408 10.7934 12.225 11.22 12.5456C11.4028 12.683 11.4122 12.9567 11.2467 13.1147L10.6959 13.6402C10.5661 13.7639 10.373 13.7695 10.2211 13.6744C10.0397 13.5605 9.83391 13.5 9.62016 13.5H8.3025C7.99781 13.5 7.74938 13.7775 7.74938 14.1183C7.74938 14.3972 7.91859 14.6428 8.16047 14.715L10.2698 15.3478C11.1412 15.6094 11.7502 16.4456 11.7502 17.3817C11.7502 18.5316 10.8572 19.4648 9.75 19.4944Z" fill="#4F505"/>
</svg>
