<svg width="23" height="24" viewBox="0 0 23 24" fill="none" xmlns="http://www.w3.org/2000/svg">
<path fill-rule="evenodd" clip-rule="evenodd" d="M11.7132 18.1412C9.67745 18.1412 7.60921 16.8572 6.40215 15.1577C0.611093 15.1577 0.436035 23.9477 0.436035 23.9477H22.989C22.989 23.9477 23.4436 15.1187 16.9311 15.1187C15.7254 16.8392 13.749 18.1412 11.7132 18.1412Z" fill="white"/>
<path fill-rule="evenodd" clip-rule="evenodd" d="M16.5642 7.60397C16.5642 10.133 14.3915 14.969 11.7092 14.969C9.03105 14.969 6.85693 10.1315 6.85693 7.60397C6.85693 5.07647 9.02964 3.02448 11.7092 3.02448C14.3915 3.02598 16.5642 5.07797 16.5642 7.60397Z" fill="white"/>
<path fill-rule="evenodd" clip-rule="evenodd" d="M18.7302 5.42142C18.7302 4.94742 18.109 4.56492 17.3382 4.56192V3.58542C17.3382 3.43992 17.3904 0.0334167 11.7264 0.0334167C6.06521 0.0334167 6.11745 3.43992 6.11745 3.58542V4.59642C6.10333 4.59642 6.09204 4.59192 6.07933 4.59192C5.31274 4.59192 4.6958 4.96842 4.6958 5.43492V9.56592C4.6958 10.0294 5.31415 10.4074 6.07933 10.4074C6.84451 10.4074 7.46568 10.0294 7.46568 9.56592V5.43492C7.46568 5.37042 7.42757 5.31192 7.40498 5.25192V4.12542C7.40498 4.02192 6.99839 1.45092 11.7264 1.45092C16.4558 1.45092 15.9645 4.02192 15.9645 4.12542V5.31192C15.956 5.34942 15.9292 5.38242 15.9292 5.42142V9.64692C15.9292 10.1224 16.5546 10.5079 17.3297 10.5079C17.3466 10.5079 17.3593 10.5019 17.3763 10.5019V12.0454H15.9871V13.5004H18.7443L18.7302 5.42142Z" fill="white"/>
</svg>
