<svg width="36" height="18" viewBox="0 0 36 18" fill="none" xmlns="http://www.w3.org/2000/svg">
<path d="M28.5 0.25C26.575 0.25 25 1.825 25 3.75V14.25C25 16.175 26.575 17.75 28.5 17.75H32C33.925 17.75 35.5 16.175 35.5 14.25V7.25H32V14.25H28.5V3.75H35.5V0.25H28.5ZM0.5 0.25V17.75H11V14.25H4V0.25H0.5ZM16.25 0.25C14.325 0.25 12.75 1.825 12.75 3.75V14.25C12.75 16.175 14.325 17.75 16.25 17.75H19.75C21.675 17.75 23.25 16.175 23.25 14.25V3.75C23.25 1.825 21.675 0.25 19.75 0.25H16.25ZM16.25 3.75H19.75V14.25H16.25V3.75Z" fill="white"/>
</svg>
