<svg width="24" height="24" viewBox="0 0 24 24" fill="none" xmlns="http://www.w3.org/2000/svg">
<path d="M12 0C10.6967 0 9.69289 1.08744 9.69289 2.3877C9.69289 3.64008 9.68411 4.73584 9.68411 4.73584H7.36671C7.32309 4.73584 7.28089 4.74066 7.23927 4.74756H6.59473V6.99902H17.4053V4.74756H16.7607C16.7191 4.74066 16.6769 4.73584 16.6333 4.73584H14.3159C14.3159 4.73584 14.3423 3.74392 14.3423 2.39502C14.3423 1.14262 13.3034 0 12 0ZM3.50391 2.2837V24H20.4961V2.2837H15.1128V3.85694H18.9405V22.4238H5.06105V3.85694H8.88721V2.2837H3.50391ZM12 2.31298C12.427 2.31298 12.772 2.65658 12.772 3.08202C12.772 3.50824 12.427 3.85252 12 3.85252C11.573 3.85252 11.228 3.50822 11.228 3.08202C11.228 2.6566 11.573 2.31298 12 2.31298ZM6.59473 8.5254V9.2959H7.36671V8.5254H6.59473ZM8.91211 8.54004V9.31054H17.4053V8.54004H8.91211ZM6.59473 11.4316V12.2021H7.36671V11.4316H6.59473ZM8.91211 11.4463V12.2183H17.4053V11.4463H8.91211ZM6.59473 14.3379V15.1084H7.36671V14.3379H6.59473ZM8.91211 14.354V15.1245H17.4053V14.354H8.91211ZM6.59473 17.2456V18.0161H7.36671V17.2456H6.59473ZM8.91211 17.2617V18.0322H17.4053V17.2617H8.91211ZM6.59473 20.1519V20.9224H7.36671V20.1519H6.59473ZM8.91211 20.168V20.9385H17.4053V20.168H8.91211Z" fill="white"/>
</svg>
