<svg width="24" height="24" viewBox="0 0 24 24" fill="none" xmlns="http://www.w3.org/2000/svg">
<path d="M11.9995 2.00012C6.47951 2.00012 1.99951 6.48012 1.99951 12.0001C1.99951 17.5201 6.47951 22.0001 11.9995 22.0001C17.5195 22.0001 21.9995 17.5201 21.9995 12.0001C21.9995 6.48012 17.5195 2.00012 11.9995 2.00012ZM19.4595 9.12012L16.6795 10.2701C16.429 9.59624 16.0357 8.98456 15.5265 8.47707C15.0173 7.96958 14.4042 7.5783 13.7295 7.33012L14.8795 4.55012C16.9795 5.35012 18.6495 7.02012 19.4595 9.12012ZM11.9995 15.0001C10.3395 15.0001 8.99951 13.6601 8.99951 12.0001C8.99951 10.3401 10.3395 9.00012 11.9995 9.00012C13.6595 9.00012 14.9995 10.3401 14.9995 12.0001C14.9995 13.6601 13.6595 15.0001 11.9995 15.0001ZM9.12951 4.54012L10.2995 7.32012C9.61683 7.56891 8.99657 7.9635 8.48192 8.47643C7.96727 8.98935 7.5706 9.60828 7.31951 10.2901L4.53951 9.13012C4.9405 8.08627 5.55629 7.1383 6.34699 6.3476C7.13769 5.5569 8.08566 4.94111 9.12951 4.54012ZM4.53951 14.8701L7.31951 13.7201C7.56885 14.4002 7.96388 15.0175 8.47692 15.5288C8.98996 16.0401 9.60861 16.4331 10.2895 16.6801L9.11951 19.4601C8.07789 19.0573 7.1322 18.4408 6.34337 17.6502C5.55453 16.8597 4.94005 15.9126 4.53951 14.8701ZM14.8795 19.4601L13.7295 16.6801C14.4074 16.429 15.0224 16.0332 15.5319 15.5203C16.0413 15.0074 16.4329 14.3897 16.6795 13.7101L19.4595 14.8801C19.0572 15.9204 18.442 16.8652 17.6533 17.6539C16.8646 18.4426 15.9198 19.0578 14.8795 19.4601Z" fill="white"/>
</svg>
