<svg width="30" height="30" viewBox="0 0 30 30" fill="none" xmlns="http://www.w3.org/2000/svg">
<path d="M22.5 10.0001C22.5 8.01094 21.7098 6.10328 20.3033 4.69676C18.8968 3.29024 16.9891 2.50006 15 2.50006C13.0109 2.50006 11.1032 3.29024 9.6967 4.69676C8.29018 6.10328 7.5 8.01094 7.5 10.0001C7.5 18.7501 3.75 21.2501 3.75 21.2501H26.25C26.25 21.2501 22.5 18.7501 22.5 10.0001Z" stroke="white" stroke-width="2" stroke-linecap="round" stroke-linejoin="round"/>
<path d="M17.1624 26.25C16.9426 26.6288 16.6272 26.9433 16.2477 27.1619C15.8682 27.3805 15.4379 27.4956 14.9999 27.4956C14.5619 27.4956 14.1316 27.3805 13.7521 27.1619C13.3726 26.9433 13.0572 26.6288 12.8374 26.25" stroke="white" stroke-width="2" stroke-linecap="round" stroke-linejoin="round"/>
<circle cx="22.5" cy="4.99994" r="3.75" fill="#EB5757"/>
</svg>
